<?xml version="1.0" standalone="no"?>
<!DOCTYPE svg PUBLIC "-//W3C//DTD SVG 20010904//EN"
 "http://www.w3.org/TR/2001/REC-SVG-20010904/DTD/svg10.dtd">
<svg version="1.0" xmlns="http://www.w3.org/2000/svg"
 width="200.000000pt" height="200.000000pt" viewBox="0 0 200.000000 200.000000"
 preserveAspectRatio="xMidYMid meet">

<g transform="translate(0.000000,200.000000) scale(0.100000,-0.100000)"
fill="#000000" stroke="none">
<path d="M920 1956 c-30 -18 -98 -57 -150 -86 -52 -29 -131 -74 -175 -100 -44
-26 -159 -91 -255 -145 -96 -54 -183 -105 -192 -113 -17 -14 -18 -51 -18 -513
l0 -498 33 -24 c17 -13 79 -50 137 -82 58 -32 163 -92 235 -134 456 -262 460
-264 487 -255 11 3 156 84 322 179 165 94 346 198 401 229 55 32 108 66 118
78 16 19 17 58 17 504 l0 483 -22 24 c-13 14 -147 96 -298 182 -151 87 -332
191 -402 232 -76 44 -139 73 -155 73 -16 0 -53 -15 -83 -34z m-147 -237 c67
-22 177 -80 195 -102 9 -10 1 -23 -34 -58 -52 -49 -124 -136 -124 -149 0 -4
49 -9 108 -11 98 -4 114 -7 174 -37 112 -55 190 -163 200 -277 l3 -40 -308 -3
-307 -2 -2 -88 -2 -87 -3 88 c-3 80 -5 87 -24 87 -45 0 -112 54 -135 109 -17
40 -18 99 -3 138 23 61 109 122 172 123 l27 0 0 159 c0 144 -2 160 -17 164
-17 4 -17 5 0 6 10 0 46 -8 80 -20z m735 -806 c-7 -72 -53 -166 -107 -216 -94
-87 -168 -107 -401 -104 -132 2 -149 4 -186 25 -22 13 -53 42 -67 65 -32 49
-34 45 -7 -18 33 -78 109 -187 176 -252 35 -35 64 -65 64 -67 0 -21 -223 -126
-265 -124 -19 0 -19 1 -1 5 17 5 18 13 12 146 -4 78 -7 208 -8 289 0 132 2
151 22 192 24 50 71 85 129 97 20 4 173 7 340 8 l304 1 -5 -47z m-799 -168
c-2 -20 -27 71 -27 95 0 14 6 0 13 -30 8 -30 14 -59 14 -65z"/>
</g>
</svg>
